<svg xmlns="http://www.w3.org/2000/svg" viewBox="0 0 200 200" fill="none">
  <rect x="30" y="30" width="140" height="140" rx="36" fill="#fbd2ea"/>
  <g transform="translate(52 52) scale(4)" fill="none" stroke="#c21b8e" stroke-width="1.2" stroke-linecap="round" stroke-linejoin="round"><path d="M12 3a9 9 0 1 0 0 18c1.1 0 2-.9 2-2 0-.5-.2-1-.5-1.3-.3-.4-.5-.8-.5-1.2 0-1 .8-1.5 1.8-1.5H16a5 5 0 0 0 5-5c0-3.9-4-6-9-6z"/><circle cx="7.5" cy="12" r="1"/><circle cx="10" cy="8" r="1"/><circle cx="15" cy="8" r="1"/></g>
</svg>
