<svg width="32" height="32" viewBox="0 0 32 32" fill="none" xmlns="http://www.w3.org/2000/svg">
<rect width="32" height="32" rx="10" fill="white"/>
<path d="M13.9519 4.22502C14.3056 4.16119 14.7678 4.19799 15.1275 4.22222C15.2467 4.23025 15.5872 4.2506 15.6532 4.36151C15.8393 4.67424 15.4654 7.46244 15.8407 7.87015C16.1252 8.17926 16.7328 7.51112 17.2172 7.53184C17.4649 7.54239 17.6814 7.66348 17.8442 7.84677C18.0413 8.06872 18.163 8.37694 18.1449 8.67458C18.1267 8.97385 17.9913 9.26705 17.7649 9.46555C17.0246 10.1146 16.6085 9.3836 16.1598 9.36558C16.0491 9.36114 15.9322 9.40287 15.8515 9.47891C15.7421 9.58207 15.7141 9.73549 15.6941 9.87846C15.6485 10.2057 15.6752 10.5616 15.6765 10.8923C15.6793 11.5857 15.6947 12.2809 15.6779 12.974C15.3084 12.9999 14.7471 12.9864 14.3689 12.9864L12.0068 12.9826C12.8486 12.0751 12.3846 10.7446 11.2124 10.5562C10.782 10.4834 10.3404 10.5874 9.98769 10.8446C9.22427 11.4032 9.21983 12.253 9.75569 12.9769C9.15106 13.0068 8.35932 12.9853 7.7408 12.985C7.25463 12.9887 6.57389 13.0114 6.10427 12.9735C5.57295 12.9305 5.83979 11.3034 5.91465 11.0075C6.13845 10.1228 6.42879 9.26385 7.23084 8.75486C7.60919 9.13862 7.99097 9.1918 8.50435 9.09797C8.76402 9.28155 9.00984 9.39912 9.30176 9.52002C9.04827 9.30029 8.76613 9.15072 8.5009 8.91623C5.83568 9.05768 8.23583 5.87016 10.2675 5.55659C10.2518 6.21972 10.0851 6.35187 10.3876 7.02872C10.7092 7.74807 12.0045 7.52404 12.1133 7.0306C11.9746 6.9569 11.6019 7.24272 11.3981 7.2051C10.9844 7.12867 10.7617 6.89362 10.745 6.46756C10.6815 4.84961 12.6669 4.31944 13.9519 4.22502Z" fill="#E6538D"/>
<path d="M16.9447 4.22606C18.4421 4.04975 20.6451 4.59147 21.7015 5.72696C22.2698 6.33778 21.7801 7.59494 20.8175 7.47279C20.8073 7.72803 20.7823 7.88392 20.8678 8.12594L20.9135 8.1336C20.9892 8.03171 20.9987 7.8603 21.0179 7.72951C21.874 7.53584 22.1519 7.19904 22.2743 6.32824C23.4299 6.65583 24.5568 7.7893 24.9206 8.92708C24.1544 8.86923 23.6478 8.90475 23.1561 9.57598C23.2019 9.91495 22.9942 10.1181 23.0557 10.4121L23.0942 10.4174C23.3671 10.1414 23.2809 9.72496 23.543 9.4463C23.7579 9.21783 24.1309 9.07856 24.4404 9.06751C24.6822 9.05886 25.021 9.1541 25.1794 9.34152C25.7828 10.0552 26.0126 11.3538 26.0301 12.277C26.0334 12.4522 26.0124 12.8263 25.8833 12.9309C25.7826 13.0124 25.5351 12.988 25.4065 12.9849L23.303 12.98C22.9299 12.9793 21.8772 12.9207 21.6653 13.17C21.1784 13.7429 22.3975 14.4686 21.6044 15.1738C21.3702 15.3807 21.0637 15.4867 20.7516 15.4688C20.0496 15.4293 19.4843 14.831 19.858 14.1104C19.9561 13.9212 20.1784 13.8074 20.1858 13.5534C20.2077 12.8061 18.996 12.9785 18.4976 12.9801C17.7538 12.9853 17.01 12.9867 16.2662 12.9844L16.2684 9.89084C17.2773 10.5232 18.3024 10.1017 18.6024 8.92405C18.8101 8.10867 18.2162 7.20114 17.3906 7.064C16.9467 6.9903 16.6376 7.13711 16.272 7.38893C16.2717 6.98135 16.2333 4.5204 16.3069 4.37517C16.4735 4.20812 16.7012 4.23671 16.9447 4.22606Z" fill="#8960AC"/>
<path d="M21.9851 13.5754C22.9241 13.5076 24.8124 13.5723 25.822 13.5851C25.8652 13.588 25.934 13.6695 25.9392 13.7072C26.1359 15.1321 25.4341 16.6954 24.1296 17.2443C24.213 16.4461 24.005 16.1422 23.2898 15.8175C23.3238 15.6486 23.4319 15.2625 23.322 15.1291C23.1897 15.2469 23.1832 15.6576 23.1687 15.8429C22.9888 16.0419 22.841 16.2102 22.6746 16.423C22.8788 16.2804 23.0361 16.101 23.2624 15.9416C23.2735 15.9465 23.2847 15.952 23.2956 15.9572C23.5111 16.0593 23.8025 16.2613 23.8816 16.4992C23.9662 16.7542 23.8216 17.0486 23.7947 17.3048C23.7633 17.6038 23.7787 17.9168 23.7165 18.2121C23.6816 18.3774 23.6242 18.5376 23.5466 18.6877C23.2208 19.3174 22.5883 19.6873 21.9314 19.8937C21.3336 20.1393 20.3971 20.2501 19.7722 20.3185C19.8506 20.6804 20.2579 22.302 20.1746 22.5412C20.1333 22.6597 20.0303 22.7574 19.9177 22.8088C19.7252 22.8966 19.5005 22.8684 19.3093 22.7921C19.0876 22.7037 18.8905 22.5568 18.7156 22.3966C18.2876 22.0048 17.3323 20.8486 17.1052 20.3214C17.627 20.1633 18.1311 20.0975 18.6199 19.8068C18.8884 19.6471 18.9997 19.4161 19.2283 19.2121C19.2302 19.2119 19.3929 19.1989 19.4109 19.1974C19.3884 19.0908 19.3317 19.1811 19.241 19.049C19.2679 18.9497 19.3183 18.9231 19.4011 18.8605C19.2444 18.5841 19.2206 18.4668 19.1687 18.1525C19.0049 19.6528 18.5026 19.7726 17.154 20.1886C16.9114 20.2635 16.5135 20.3757 16.2839 20.257C15.9645 19.9266 16.5144 18.8625 15.9792 18.5246C15.6211 18.2643 15.2172 18.8012 14.8748 18.799C13.403 18.7891 13.8752 16.3417 15.3132 17.0832C15.61 17.2363 16.0121 17.3498 16.1697 16.9367C16.3438 16.4799 16.1122 13.7847 16.2839 13.5627C17.4177 13.5611 18.5895 13.545 19.7205 13.5685C19.5339 13.775 19.3249 14.0503 19.2898 14.3351C19.0483 16.298 21.9697 16.5494 22.3455 14.7404C22.4365 14.302 22.2406 13.9219 21.9851 13.5754ZM20.8367 17.0617C20.758 17.299 20.9242 17.5109 21.1511 17.5773C21.6302 17.7175 21.9436 17.6091 22.3767 17.4211L22.4167 17.3791C22.1295 17.2359 21.1064 17.9323 20.8777 17.0929L20.8367 17.0617Z" fill="#FEAD16"/>
<path d="M10.7138 11.0295C11.6723 10.9812 12.3069 11.7562 11.7783 12.5441C10.9317 13.8058 12.4737 13.5655 13.3593 13.5646L15.667 13.5607C15.6959 14.5781 15.6689 15.7246 15.6679 16.7521C14.7718 16.2283 13.8042 16.4936 13.5468 17.5471C13.4534 17.9199 13.5166 18.315 13.7207 18.6408C14.1929 19.4053 14.9463 19.4066 15.6445 18.9601C15.647 19.3855 15.6529 19.8113 15.6621 20.2365C15.4127 20.2975 15.159 20.3386 14.9033 20.3605C13.5462 20.4832 12.2581 20.2954 11.1855 19.4025C10.8838 19.1223 10.6399 18.7813 10.5722 18.3674C10.514 18.0184 10.5978 17.6603 10.8047 17.3732C11.1409 16.909 11.5817 16.769 12.1113 16.6848L12.122 16.6516C11.8966 16.5504 11.7838 16.594 11.5449 16.6437C11.5585 16.6163 11.5716 16.5884 11.5849 16.5607C11.6349 16.4568 11.7118 16.3212 11.6728 16.2092L11.6152 16.2209C11.4737 16.3352 11.4015 16.5177 11.3183 16.6828C10.8236 16.9691 10.5628 17.1916 10.3027 17.7014C9.51009 17.7191 8.95183 17.6136 8.07419 17.1633C6.99651 16.6101 5.66776 15.0211 5.93259 13.6789C5.94342 13.626 6.03393 13.5798 6.0947 13.5715C6.33856 13.5381 6.59708 13.5644 6.84372 13.5588C7.82397 13.5327 8.89025 13.6278 9.85642 13.5187C9.9916 13.5033 10.1371 13.3877 10.2011 13.2639C10.4636 12.8062 9.99356 12.7266 9.89645 12.3107C9.74549 11.6636 10.0887 11.194 10.7138 11.0295ZM8.87204 14.6623C8.65474 14.9961 9.06148 15.7937 9.36032 15.966C9.39059 15.8041 8.93714 15.0072 8.90427 14.7023L8.87204 14.6623Z" fill="#1EBCB8"/>
<path d="M2.57512 16.6528C3.48183 16.6013 3.91853 17.392 4.22021 18.1254C4.47301 18.7399 4.7314 19.4061 4.90825 20.0468C6.3146 19.3051 7.35489 21.3708 8.38743 21.9197C9.57576 22.5513 10.8638 22.5942 11.8266 23.6862C12.5411 24.4966 12.8424 25.4158 13.1737 26.423C13.2557 26.6634 13.4382 27.1014 13.4288 27.3356C13.3803 27.4394 13.334 27.4602 13.2317 27.4407C13.1648 27.3855 13.1053 27.2952 13.081 27.2133C12.7991 26.2628 12.5033 25.4 12.0282 24.532C11.0803 22.8004 9.29598 22.9679 7.89161 21.9801C7.16452 21.4123 6.59352 20.5263 5.68832 20.2298C5.43286 20.1461 4.92882 20.2917 4.95349 20.5567C5.04236 21.5118 6.60615 22.6017 7.24046 23.2092C7.42774 23.3872 7.59601 23.5842 7.74253 23.797C7.82784 23.9221 7.96818 24.1329 7.93978 24.2852L7.89207 24.2951L7.81314 24.2184C6.95029 23.1404 5.34797 22.3057 4.69073 21.0146C4.54964 20.7375 4.59643 20.5152 4.708 20.2407C4.43889 19.5408 3.61026 16.7813 2.63492 16.9731C2.52775 17.0498 2.56117 17.0119 2.50459 17.1365C2.51604 17.5664 2.92077 18.9118 3.03408 19.4406C3.21154 19.9339 3.25944 20.7389 3.46848 21.2024C3.86407 22.0796 4.31119 22.97 4.65315 23.8743C4.83942 24.3669 5.44197 24.7048 5.8425 25.0238C6.66024 25.6749 7.61463 26.2586 8.33804 27.0155C7.79001 26.7683 4.8583 24.7932 4.55181 24.3787C4.20317 23.9073 4.03754 23.2086 3.7959 22.6699C3.59325 22.2182 3.33469 21.786 3.16062 21.3225C2.9768 20.833 2.89319 20.2576 2.76715 19.7474C2.57696 18.9774 2.31469 18.1657 2.20668 17.3803C2.18515 17.2238 2.15887 17.056 2.23008 16.9085C2.30093 16.7617 2.42772 16.702 2.57512 16.6528Z" fill="#100F0F"/>
<path d="M29.1533 16.6504C29.2469 16.6531 29.3406 16.6564 29.4305 16.685C29.5497 16.723 29.647 16.7942 29.704 16.9073C29.7755 17.0496 29.7738 17.2239 29.7537 17.3788C29.6785 17.9596 29.4686 18.5614 29.3316 19.1332C29.1639 19.8334 29.0468 20.5822 28.8231 21.2642C28.6612 21.7581 28.3778 22.2018 28.1672 22.675C27.9261 23.2164 27.783 23.8983 27.4184 24.3682C27.0073 24.898 24.3709 26.679 23.7131 27.0113C24.4891 26.1105 26.0045 25.2739 26.8981 24.4347C27.4463 23.9199 27.5428 23.259 27.8578 22.5962C28.086 22.1161 28.3161 21.6576 28.5123 21.1671C28.8187 19.9147 29.1142 18.6534 29.4075 17.3976C29.4401 17.2581 29.4551 17.1219 29.3707 17.0057C29.253 16.9501 29.1564 16.9758 29.0372 17.0184C28.4335 17.2345 28.1704 18.0197 27.9468 18.5582C27.7087 19.1317 27.4966 19.6884 27.2408 20.2495C27.2918 20.3651 27.3444 20.4806 27.3523 20.6085C27.4181 21.6834 24.9832 23.2895 24.2871 24.0972C24.2196 24.1792 24.1527 24.2876 24.0402 24.2702C23.866 23.4835 27.4311 21.4118 26.9856 20.4914C26.492 19.4715 24.7894 21.3656 24.3148 21.7871C24.1189 21.964 23.9032 22.1178 23.672 22.2454C23.0345 22.601 22.2678 22.7535 21.5657 23.078C19.8858 23.8543 19.4159 25.539 18.8348 27.143C18.7884 27.2708 18.7514 27.3866 18.6227 27.4479C18.5033 27.4264 18.5438 27.4415 18.4502 27.3525C18.4187 27.0934 19.1449 25.3623 19.2921 25.0418C19.6179 24.3326 19.9608 23.814 20.5606 23.3105C21.4732 22.5317 22.6348 22.4652 23.6436 21.8792C24.6943 21.2689 25.6619 19.3889 27.0516 20.05C27.223 19.4344 27.5121 18.752 27.7467 18.1546C28.0087 17.4875 28.3877 16.7948 29.1533 16.6504Z" fill="#100F0F"/>
</svg>
