<svg width="32" height="32" viewBox="0 0 32 32" fill="none" xmlns="http://www.w3.org/2000/svg">
<path fill-rule="evenodd" clip-rule="evenodd" d="M13.8874 4C14.2548 4 14.6049 4.1558 14.851 4.42857L15.9798 5.67966C16.1086 5.82238 16.3326 5.82238 16.4614 5.67966L17.5902 4.42857C17.8362 4.1558 18.1864 4 18.5538 4H27.4311C27.8801 4.00001 28.2537 4.34118 28.2874 4.78892C28.4073 6.38013 28.6575 10.1217 28.6575 13.6251C28.6575 17.2945 28.383 22.5978 28.2714 24.6037C28.2459 25.0605 27.8678 25.4131 27.4102 25.4131H18.2215C17.8687 25.4131 17.5311 25.5568 17.2864 25.811L16.2381 26.9005C16.1105 27.0332 15.8981 27.0332 15.7705 26.9005L14.7222 25.811C14.4775 25.5568 14.1399 25.4131 13.7871 25.4131H5.25869C4.79642 25.4131 4.41598 25.0528 4.3952 24.591C4.29016 22.2565 4 15.6264 4 13.6251C4 11.6847 4.27271 6.75734 4.38506 4.80983C4.41143 4.35299 4.78967 4 5.24728 4H13.8874ZM22.6386 14.6206C22.4061 14.5659 22.1747 14.7107 22.104 14.9389C21.7309 16.1444 21.0016 17.2128 20.0072 18.0006C18.8994 18.8782 17.5276 19.356 16.1143 19.3564C14.7011 19.3569 13.3292 18.88 12.2209 18.0031C11.2259 17.216 10.4958 16.1478 10.1219 14.9425C10.0511 14.7143 9.81958 14.5697 9.58709 14.6246L8.32355 14.9228C8.09107 14.9777 7.9459 15.2112 8.01263 15.4405C8.50117 17.12 9.50126 18.61 10.8785 19.6997C12.3691 20.879 14.2143 21.5204 16.115 21.5198C18.0157 21.5192 19.8607 20.8768 21.3506 19.6965C22.7272 18.606 23.7263 17.1153 24.2137 15.4355C24.2803 15.206 24.135 14.9727 23.9024 14.918L22.6386 14.6206Z" fill="#4B68F0"/>
</svg>
