<svg xmlns="http://www.w3.org/2000/svg">
  <symbol id="designing-minds-logo" viewBox="0 0 100 42">
    <path d="M20.3947 2.80277C20.9196 2.70806 21.6056 2.76266 22.1394 2.79863C22.3162 2.81054 22.8215 2.84074 22.9195 3.00533C23.1957 3.46942 22.6408 7.60711 23.1977 8.21214C23.6199 8.67086 24.5215 7.67934 25.2404 7.71009C25.6081 7.72575 25.9294 7.90545 26.1709 8.17744C26.4634 8.50683 26.644 8.96423 26.6172 9.40591C26.5901 9.85004 26.3893 10.2851 26.0532 10.5797C24.9547 11.5428 24.3371 10.4581 23.6712 10.4314C23.507 10.4248 23.3335 10.4867 23.2137 10.5995C23.0514 10.7526 23.0099 10.9803 22.9802 11.1925C22.9125 11.678 22.9521 12.2063 22.9541 12.6971C22.9582 13.726 22.981 14.7576 22.9561 15.7862C22.4077 15.8247 21.5748 15.8046 21.0135 15.8047L17.5082 15.799C18.7574 14.4523 18.0688 12.4778 16.3294 12.1982C15.6906 12.0902 15.0353 12.2445 14.5119 12.6262C13.379 13.4552 13.3724 14.7162 14.1676 15.7905C13.2703 15.835 12.0954 15.803 11.1775 15.8026C10.456 15.8081 9.44581 15.8418 8.74889 15.7855C7.96041 15.7218 8.35641 13.307 8.46749 12.8679C8.79962 11.555 9.23048 10.2804 10.4207 9.52504C10.9822 10.0945 11.5487 10.1735 12.3106 10.0342C12.696 10.3067 13.0608 10.4811 13.494 10.6605C13.1178 10.3345 12.6991 10.1125 12.3055 9.76453C8.35031 9.97444 11.9121 5.24417 14.9271 4.77883C14.9039 5.76292 14.6564 5.95901 15.1054 6.96347C15.5826 8.03098 17.5048 7.69852 17.6663 6.96625C17.4604 6.85688 16.9073 7.28104 16.605 7.22521C15.991 7.11179 15.6605 6.76298 15.6357 6.13071C15.5414 3.72967 18.4879 2.9429 20.3947 2.80277Z" fill="#E6538D" />
    <path d="M24.8338 2.80244C27.056 2.54079 30.3253 3.3447 31.893 5.02976C32.7363 5.93622 32.0096 7.80184 30.5811 7.62057C30.5659 7.99935 30.5288 8.23068 30.6557 8.58984L30.7235 8.60121C30.8358 8.45001 30.85 8.19564 30.8785 8.00155C32.149 7.71413 32.5613 7.21432 32.7429 5.92206C34.4579 6.40821 36.1302 8.09027 36.67 9.77873C35.5331 9.69288 34.7812 9.74559 34.0515 10.7417C34.1196 11.2447 33.8113 11.5462 33.9025 11.9826L33.9597 11.9904C34.3647 11.5808 34.2367 10.9628 34.6257 10.5493C34.9447 10.2102 35.4982 10.0035 35.9574 9.98712C36.3163 9.97429 36.819 10.1156 37.0541 10.3938C37.9495 11.4529 38.2906 13.38 38.3166 14.75C38.3215 15.0099 38.2903 15.5652 38.0987 15.7203C37.9493 15.8413 37.5819 15.8051 37.3912 15.8006L34.2695 15.7933C33.7159 15.7923 32.1537 15.7052 31.8392 16.0752C31.1166 16.9254 32.9257 18.0023 31.7488 19.0488C31.4013 19.3559 30.9464 19.5133 30.4833 19.4866C29.4414 19.428 28.6026 18.5402 29.1572 17.4708C29.3028 17.1901 29.6326 17.0212 29.6436 16.6442C29.6761 15.5351 27.878 15.791 27.1384 15.7934C26.0346 15.8011 24.9308 15.8032 23.827 15.7997L23.8302 11.209C25.3275 12.1474 26.8487 11.5218 27.2938 9.77424C27.6021 8.56422 26.7208 7.21744 25.4955 7.01393C24.8368 6.90456 24.3781 7.12242 23.8356 7.49612C23.8351 6.89128 23.7781 3.23924 23.8874 3.02372C24.1347 2.77581 24.4725 2.81824 24.8338 2.80244Z" fill="#8960AC" />
    <path d="M32.314 16.6763C33.7074 16.5757 36.51 16.6709 38.0083 16.6899C38.0725 16.6941 38.1745 16.8156 38.1822 16.8716C38.4741 18.9859 37.433 21.3048 35.4976 22.1196C35.6212 20.9355 35.3125 20.485 34.2515 20.0034C34.302 19.7525 34.4621 19.1785 34.2984 18.9809C34.1018 19.1559 34.0934 19.7666 34.0718 20.0415C33.8049 20.3367 33.5844 20.5851 33.3374 20.9009C33.6405 20.6893 33.8746 20.4245 34.2105 20.188C34.2271 20.1954 34.2439 20.2027 34.2603 20.2104C34.58 20.362 35.011 20.6613 35.1285 21.0141C35.2545 21.3928 35.0406 21.83 35.0005 22.2104C34.9539 22.6543 34.9757 23.1187 34.8833 23.5571C34.8314 23.8025 34.7475 24.0404 34.6324 24.2632C34.1488 25.1976 33.2098 25.7469 32.2349 26.0532C31.3478 26.4175 29.958 26.5805 29.0308 26.6821C29.147 27.2184 29.7515 29.6244 29.6285 29.9809C29.5672 30.1568 29.4136 30.3021 29.2466 30.3784C28.9608 30.5087 28.6271 30.4671 28.3433 30.354C28.0144 30.2228 27.722 30.0047 27.4624 29.7671C26.8273 29.1855 25.4108 27.4693 25.0738 26.687C25.848 26.4525 26.5956 26.3547 27.3208 25.9233C27.7192 25.6863 27.8842 25.3442 28.2232 25.0415C28.2232 25.0415 28.4694 25.0211 28.4947 25.019C28.4613 24.8608 28.3763 24.9952 28.2417 24.7993C28.2817 24.6516 28.357 24.612 28.48 24.519C28.2474 24.1089 28.2114 23.9347 28.1343 23.4682C27.8913 25.6948 27.1465 25.8733 25.1451 26.4907C24.7849 26.6018 24.1937 26.7678 23.8531 26.5913C23.3797 26.1006 24.1961 24.5213 23.4019 24.02C22.8705 23.6338 22.2705 24.4306 21.7623 24.4272C19.5786 24.4121 20.2794 20.7813 22.4136 21.8823C22.854 22.1095 23.4503 22.2767 23.6841 21.6636C23.9422 20.985 23.5994 16.988 23.854 16.6577C25.5366 16.6554 27.2754 16.6307 28.9537 16.6655C28.6768 16.9719 28.3661 17.3806 28.314 17.8032C27.9557 20.7162 32.2915 21.0894 32.8492 18.4048C32.9842 17.7542 32.6932 17.1905 32.314 16.6763ZM30.6099 21.8491C30.4928 22.2013 30.74 22.516 31.0767 22.6147C31.7877 22.8228 32.2533 22.6623 32.896 22.3833L32.9546 22.3218C32.5281 22.1098 31.0098 23.1424 30.6705 21.897L30.6099 21.8491Z" fill="#FEAD16" />
    <path d="M15.5956 12.8977C17.018 12.826 17.96 13.9765 17.1757 15.1458C15.9193 17.018 18.2071 16.6607 19.5214 16.6594L22.9471 16.6546C22.9902 18.1644 22.9496 19.8659 22.9481 21.3909C21.6182 20.6133 20.1826 21.0071 19.8007 22.5706C19.662 23.1238 19.7547 23.7101 20.0575 24.1936C20.7583 25.3282 21.8768 25.3298 22.913 24.6673C22.9166 25.2984 22.9257 25.9298 22.9393 26.5608C22.5692 26.6513 22.192 26.7129 21.8124 26.7454C19.7986 26.9274 17.8874 26.6494 16.2958 25.3245C15.848 24.9086 15.486 24.4027 15.3856 23.7883C15.299 23.2703 15.4233 22.7389 15.7303 22.3128C16.2293 21.6235 16.8828 21.4164 17.6688 21.2913L17.6864 21.2415C17.3514 21.0911 17.1839 21.1558 16.829 21.2298C16.8493 21.189 16.8688 21.1477 16.8885 21.1067C16.9629 20.9523 17.0769 20.7507 17.0184 20.5842L16.9335 20.6028C16.7236 20.7724 16.6155 21.0424 16.4921 21.2874C15.758 21.7121 15.3721 22.042 14.9862 22.7981C13.8099 22.8244 12.981 22.6696 11.6786 22.0012C10.0793 21.1805 8.10692 18.8222 8.49987 16.8303C8.51543 16.7516 8.65071 16.6836 8.74109 16.6712C9.10315 16.6216 9.48723 16.66 9.85339 16.6516C11.308 16.613 12.8894 16.7539 14.3231 16.5921C14.5238 16.5693 14.7397 16.3979 14.8348 16.2141C15.2246 15.5348 14.5269 15.4171 14.3827 14.8001C14.1584 13.8396 14.6677 13.1418 15.5956 12.8977ZM12.8661 18.2903C12.5437 18.7857 13.1472 19.9694 13.5907 20.2249C13.6356 19.9846 12.9625 18.8012 12.9139 18.3489L12.8661 18.2903Z" fill="#1EBCB8" />
    <path d="M3.51071 21.2438C4.85626 21.1674 5.50432 22.3408 5.95203 23.4292C6.32717 24.3411 6.71062 25.3297 6.97307 26.2805C9.06008 25.1798 10.6039 28.2453 12.1362 29.0598C13.8996 29.9972 15.8111 30.0608 17.2399 31.6813C18.3002 32.8839 18.7474 34.2481 19.2389 35.7428C19.3606 36.0995 19.6314 36.7495 19.6176 37.097C19.5456 37.2512 19.4768 37.282 19.325 37.2531C19.2257 37.1711 19.1374 37.0371 19.1014 36.9156C18.683 35.505 18.2441 34.2246 17.539 32.9366C16.1324 30.3668 13.4845 30.6154 11.4004 29.1494C10.3214 28.3069 9.474 26.9921 8.13069 26.5521C7.75159 26.4279 7.00359 26.6439 7.04021 27.0373C7.1721 28.4546 9.49275 30.0719 10.4341 30.9735C10.712 31.2377 10.9617 31.5299 11.1791 31.8458C11.3057 32.0315 11.514 32.3442 11.4719 32.5703L11.4011 32.585L11.2839 32.4711C10.0034 30.8714 7.62561 29.6327 6.65027 27.7167C6.44089 27.3055 6.51033 26.9756 6.6759 26.5682C6.27654 25.5296 5.04685 21.4345 3.59946 21.7192C3.44042 21.8329 3.49001 21.7768 3.40604 21.9616C3.42304 22.5996 4.02365 24.5961 4.19181 25.3809C4.45515 26.113 4.52624 27.3075 4.83645 27.9954C5.42351 29.2972 6.08704 30.6185 6.59451 31.9606C6.87092 32.6915 7.76511 33.193 8.3595 33.6663C9.57302 34.6326 10.9893 35.4988 12.0629 36.622C11.2496 36.2552 6.89895 33.3241 6.44412 32.7091C5.92673 32.0094 5.68093 30.9725 5.32234 30.1732C5.02161 29.5028 4.63791 28.8615 4.3796 28.1736C4.1068 27.4472 3.98273 26.5934 3.79568 25.8361C3.51345 24.6934 3.12424 23.4889 2.96394 22.3235C2.932 22.0912 2.893 21.8421 2.99867 21.6233C3.10382 21.4055 3.29197 21.3168 3.51071 21.2438Z" fill="#100F0F" />
    <path d="M42.9551 21.2422C43.094 21.2461 43.2332 21.2511 43.3666 21.2936C43.5434 21.3499 43.6878 21.4556 43.7723 21.6235C43.8785 21.8347 43.876 22.0933 43.8462 22.3231C43.7345 23.1851 43.4231 24.078 43.2198 24.9266C42.9709 25.9658 42.7971 27.077 42.4652 28.0891C42.2249 28.8221 41.8043 29.4805 41.4917 30.1827C41.134 30.9861 40.9216 31.9981 40.3805 32.6953C39.7704 33.4816 35.858 36.1246 34.8819 36.6178C36.0335 35.2809 38.2824 34.0395 39.6085 32.7941C40.422 32.0301 40.5651 31.0493 41.0326 30.0658C41.3713 29.3533 41.7128 28.6729 42.0039 27.9449C42.4587 26.0864 42.8971 24.2146 43.3324 22.351C43.3808 22.1441 43.4029 21.9419 43.2778 21.7694C43.103 21.6869 42.9597 21.7251 42.7829 21.7884C41.8869 22.109 41.4966 23.2743 41.1648 24.0733C40.8113 24.9244 40.4965 25.7505 40.117 26.5833C40.1927 26.7549 40.2708 26.9262 40.2824 27.116C40.3801 28.7112 36.7668 31.0946 35.7337 32.2932C35.6335 32.415 35.5343 32.5757 35.3673 32.55C35.1087 31.3824 40.3993 28.3081 39.7382 26.9422C39.0058 25.4287 36.4791 28.2395 35.7749 28.865C35.484 29.1276 35.164 29.3558 34.821 29.5452C33.8749 30.0728 32.7371 30.2992 31.6951 30.7807C29.2022 31.9328 28.5049 34.4328 27.6424 36.8132C27.5737 37.0029 27.5187 37.1747 27.3278 37.2656C27.1506 37.2338 27.2107 37.2561 27.0718 37.124C27.0251 36.7396 28.1027 34.1707 28.3212 33.695C28.8046 32.6425 29.3135 31.8729 30.2035 31.1258C31.5578 29.97 33.2816 29.8713 34.7788 29.0017C36.338 28.0961 37.7739 25.3061 39.8362 26.2872C40.0906 25.3736 40.5196 24.361 40.8678 23.4744C41.2566 22.4844 41.819 21.4564 42.9551 21.2422Z" fill="#100F0F" />
    <path d="M79.8027 25.9729C80.5937 25.9125 81.1132 26.0434 80.9893 26.9612C80.5567 30.1574 80.6621 33.5371 81.0078 36.7297C81.0336 36.9756 80.5648 37.0901 80.3955 37.1409C79.3989 36.915 79.4813 36.5811 79.3564 35.6145C79.1805 35.9369 78.7928 36.4421 78.5586 36.718C78.3327 37.0231 76.7673 36.8105 76.499 36.3508C76.0172 35.5236 76.1874 34.9117 76.1123 34.0178C76.0079 32.7802 76.2189 30.9264 77.2051 30.0559C77.5322 29.7809 78.7839 29.9661 79.207 30.0618C79.2246 28.8379 78.8355 26.8955 79.8027 25.9729ZM62.9297 26.7463C63.3594 26.7132 64.062 26.8112 64.3398 27.1672C64.4256 27.4246 64.4023 27.7556 64.3789 28.0237C64.1607 30.5212 64.0934 32.981 64.6758 35.4368C64.7918 35.9263 64.5956 36.8739 63.9307 36.4612C62.9892 35.842 62.7753 34.56 62.417 33.5627C62.3449 33.3612 62.368 32.7098 62.2812 32.3801C61.9299 32.9142 61.6722 34.7101 61.2471 35.4514C61.0431 36.2107 60.1297 37.0203 59.4961 36.0579C58.6468 34.7667 58.6545 32.6023 58.1338 31.1799C58.0347 31.9553 57.9467 32.7171 57.834 33.4924C57.7203 34.1619 57.807 36.2531 57.3467 36.6174C57.0871 36.7045 56.529 36.5233 56.4512 36.2044C56.3338 35.7195 56.4408 35.272 56.4443 34.7854C56.4229 34.1053 56.3258 33.5299 56.4297 32.8518C56.6108 31.6715 56.6715 30.7068 57.0459 29.5647C57.3138 28.7471 57.2489 28.3231 57.6836 27.4905C58.2772 27.1775 58.824 26.8762 59.4824 27.3567C59.5224 27.3747 59.7303 27.6136 59.7324 27.6379C59.8857 29.2158 59.9473 30.8084 60.165 32.3831C60.2412 32.9295 60.3628 33.4507 60.4277 34.0002C60.6838 33.529 60.7341 33.1681 60.9307 32.6946C61.3807 31.6138 61.7998 30.4505 62.1133 29.3235C62.2148 28.9597 62.1019 28.0829 62.2891 27.6389C62.4774 27.1919 62.6331 27.1028 62.9297 26.7463ZM70.3477 30.2708C70.6581 30.329 70.8078 30.4044 71.0967 30.5315C71.2387 31.1832 71.1275 32.1474 71.1777 32.9006C71.5976 32.1609 71.9607 31.5106 72.5361 30.8684C73.2919 30.0256 73.6578 30.3517 74.3467 31.054C74.4251 31.6639 74.3437 32.2601 74.3125 32.8733C74.2398 34.3146 74.4244 34.8801 74.8662 36.2034C74.7282 36.5906 74.008 36.5559 73.6699 36.552C72.6101 35.9053 72.5835 34.0948 72.667 32.9915C71.5638 33.6596 71.5814 35.1415 71.1592 36.1663C70.9701 36.2547 70.0683 36.1588 69.9453 36.0413C69.7365 35.8642 69.7797 35.5932 69.7607 35.3391C69.6475 33.8063 69.7797 32.1032 69.625 30.5842C69.8231 30.4825 70.1348 30.3608 70.3477 30.2708ZM83.6875 29.929C84.9619 29.8324 85.897 30.0784 86.2988 31.4758C86.3923 31.8021 86.3532 32.1939 85.9619 32.2786C84.9952 32.4871 84.8143 31.2714 84.417 30.9934C84.2759 30.9977 84.3295 30.9778 84.2148 31.0784C83.8684 31.8956 84.986 32.9495 85.4727 33.5432C86.5643 34.8755 86.6068 36.0563 84.7119 36.5012C83.3749 36.5712 82.1728 36.1668 82.4766 34.5042C82.5307 34.3844 82.7685 34.0643 82.9092 34.0403C83.554 33.9335 83.5411 35.3751 84.0879 35.5266C84.9587 35.7668 84.9473 34.7828 84.5293 34.2854C83.6476 33.2374 82.0635 32.4718 82.6738 30.8284C82.8487 30.3587 83.2484 30.1075 83.6875 29.929ZM66.8076 30.3479C67.2872 30.3321 67.6345 30.5827 67.9639 30.885C67.9712 31.7881 67.9419 32.7478 67.9219 33.6516C67.9123 34.0861 68.0908 35.8217 67.9424 36.0764C67.7864 36.1792 67.8542 36.1577 67.6621 36.1555C67.0408 35.9715 67.2568 36.168 66.6426 35.7395C65.9806 34.4146 66.3139 33.1117 66.332 31.6731C66.3368 31.2928 66.2457 30.9819 66.2773 30.635C66.3417 30.4844 66.4373 30.4484 66.5811 30.3665C66.656 30.3574 66.7322 30.3511 66.8076 30.3479ZM78.3965 31.137C77.8667 32.0448 77.0269 34.9884 77.8281 35.7961C77.9469 35.8261 77.9107 35.8346 78.0107 35.7981C78.4988 35.1907 78.7613 33.1801 79.041 32.3557C78.8826 31.8532 78.9857 31.1517 78.3965 31.137ZM66.8721 26.8909C67.5708 26.8777 68.5657 26.9613 68.1582 27.9446C68.0469 28.2133 67.8147 28.6697 67.6113 28.8616C67.1536 29.0404 66.7269 28.9635 66.4346 28.5452C66.2453 28.274 66.1751 27.9365 66.2412 27.6126C66.3144 27.2557 66.4915 27.0814 66.7812 26.8928L66.8721 26.8909ZM92.6543 9.4563C92.9628 9.45894 93.2399 9.51079 93.5439 9.55982C93.6557 9.74932 93.7393 9.92561 93.7705 10.1458C93.8407 10.637 93.835 11.1386 93.8594 11.634C93.9194 12.8389 94.0049 14.044 93.8945 15.2493C93.7757 16.8405 92.9403 18.7034 91.082 18.6624C90.4944 18.6505 89.881 18.3254 89.6641 17.76C89.5474 17.4559 89.5884 17.0431 89.9736 17.0022C90.1137 16.9874 90.2213 17.0401 90.3438 17.1018C92.1018 18.5887 92.3915 16.2419 92.3066 14.97C91.8151 15.1487 91.2782 15.2219 90.7793 15.0129C89.2267 14.3602 89.3956 12.5383 89.7324 11.1868C89.9155 10.4538 90.226 9.90911 90.9434 9.60572C91.408 9.66976 91.8225 9.80962 92.2793 9.91919C92.3973 9.70398 92.437 9.61318 92.6396 9.46705L92.6543 9.4563ZM70.2471 9.45923C70.4559 9.44387 70.8124 9.47352 71.0059 9.5481C71.1411 9.60046 71.2134 9.67459 71.2715 9.80787C71.5609 10.4707 71.5757 14.4707 71.4814 15.3743C71.4307 15.8615 71.3397 16.3184 71.1553 16.7737C70.8696 17.478 70.4095 18.1702 69.6826 18.4729C69.174 18.6842 68.5309 18.7361 68.0176 18.5149C67.6892 18.3733 67.3917 18.1138 67.2637 17.7737C67.2008 17.6061 67.1756 17.3799 67.2598 17.2141C67.3075 17.1218 67.3901 17.0516 67.4893 17.0198C67.6634 16.964 67.7703 17.0175 67.9258 17.096C68.2176 17.3237 68.5414 17.6311 68.9375 17.6028C69.8829 17.5339 69.936 15.6172 69.9062 14.969C67.4096 15.8644 66.6783 13.1566 67.2979 11.3274C67.6049 10.4222 67.6027 10.1378 68.4678 9.61353C68.9784 9.64066 69.3375 9.7778 69.8145 9.93775C69.9877 9.88881 69.9068 9.70547 70.2314 9.46998L70.2471 9.45923ZM55.0723 9.1399C57.0058 8.82351 57.8027 10.5473 56.835 12.0647C56.5911 12.4478 56.5476 12.6216 56.1729 12.926C55.5853 12.9785 55.2806 13.0026 54.6982 12.9153C54.7554 13.5703 54.9683 15.463 56.085 14.6243C56.4276 14.3668 56.7246 13.804 57.2012 13.8694C57.3749 13.9998 57.5281 14.0497 57.4531 14.2639C57.3895 14.7539 57.0975 15.3239 56.7734 15.6946C56.1537 16.4034 54.9105 16.1515 54.2305 15.6672C52.2906 14.2849 53.0027 11.4672 54.0791 9.77466C54.3373 9.37155 54.6166 9.21633 55.0723 9.1399ZM73.7324 9.70826C74.0736 9.67806 74.2906 9.80319 74.5918 9.94654C74.6933 10.5412 74.6265 11.6692 74.6543 12.3674C74.9858 11.6366 75.9372 9.96443 76.8008 9.76783C77.0607 9.70973 77.5875 10.2097 77.8096 10.3997C77.9755 11.6193 77.6123 12.9821 77.9111 14.2268C78.0244 14.6995 78.2237 15.134 78.3408 15.6057C78.2158 16.0039 77.4805 15.9636 77.1426 15.9563C76.09 15.1617 76.0294 13.5567 76.1797 12.343C75.3563 12.9549 75.0507 13.889 74.8799 14.8626C74.8379 15.1029 74.8049 15.5937 74.5068 15.5911C74.3061 15.5893 73.566 15.6002 73.4385 15.4465C73.091 15.0252 73.2752 14.0036 73.2041 13.4641C73.1519 12.2947 73.2085 11.1298 73.1299 9.97193L73.7324 9.70826ZM83.6455 9.70923C84.0062 9.67857 84.2175 9.80416 84.5283 9.96412C84.5927 10.7147 84.5552 11.5801 84.5693 12.3547C84.934 11.6184 85.829 9.98014 86.7119 9.76783C86.9725 9.7055 87.4993 10.2085 87.7207 10.3997C87.8861 11.3181 87.606 12.6557 87.75 13.7053C87.7776 14.3775 88.1124 14.9723 88.252 15.6116C88.3278 15.9636 87.2529 15.9624 87.0811 15.9592C86.0192 15.3811 85.9582 13.3979 86.0928 12.343C85.3068 12.9367 85.0287 13.7421 84.8281 14.6848C84.7735 14.9416 84.7382 15.3005 84.6123 15.5198C84.4311 15.6644 83.5368 15.5867 83.3672 15.4573C83.05 15.2141 83.163 14.3333 83.1318 13.9514C83.0293 12.6941 83.2133 11.2185 83.0244 9.9856C83.222 9.88939 83.443 9.79804 83.6455 9.70923ZM60.208 9.28736C61.3462 9.2181 62.334 9.86541 62.5059 11.0442C62.5078 11.5177 62.4633 11.6028 62.0703 11.7053C61.2596 11.9161 60.8134 10.3751 60.4824 10.3928C59.1582 11.4484 65.1433 14.8566 60.8496 15.9133C59.9085 15.9654 58.8874 15.8109 58.6416 14.679C58.3916 13.5258 59.4873 12.8879 59.7344 14.1526C59.8094 14.5342 60.1344 15.1015 60.6426 14.9407C61.3516 14.7156 60.832 13.6374 60.3994 13.3518C59.3795 12.4456 58.0676 11.3174 59.0605 9.88208C59.3392 9.47931 59.7556 9.35813 60.208 9.28736ZM47.7158 5.86744C48.3213 5.80415 48.8302 5.91673 49.4121 6.08912C51.8412 6.80377 52.3496 9.83351 51.6143 11.9426C51.0439 13.5776 50.1383 14.6701 48.5928 15.4251C48.0084 15.7409 47.8873 15.8196 47.2217 15.8167C47.0064 15.7004 46.2756 15.1294 46.1826 14.9221C45.7108 13.8571 46.0762 12.1427 46.124 11.0178C46.1654 10.043 46.1497 9.54876 46.3691 8.65357C45.5259 8.45443 45.4803 8.32277 45.168 7.51099C45.4412 6.4434 46.772 6.11364 47.7158 5.86744ZM64.1367 9.76685C64.8003 9.724 65.0288 9.87263 65.5225 10.2737C65.5361 11.9234 65.4551 13.5774 65.5645 15.2307C65.5799 15.4733 65.4706 15.528 65.2656 15.5891C64.9683 15.4563 64.4935 15.4799 64.2451 15.1545C63.5172 14.2006 63.8803 12.2192 63.9062 11.0784C63.9145 10.7104 63.8116 10.4151 63.834 10.0608C63.9076 9.89545 63.9814 9.86464 64.1367 9.76685ZM79.9727 9.76783C80.6239 9.72391 80.8624 9.86495 81.3506 10.26C81.3662 11.2221 81.3369 12.2247 81.3369 13.1887C81.3366 13.6198 81.456 15.2147 81.3438 15.4739C81.2101 15.5918 81.26 15.5592 81.0469 15.5598C80.5409 15.3493 80.5959 15.5626 80.0264 15.1252C79.2676 13.5104 79.9154 11.9477 79.6777 10.2688C79.6373 9.98484 79.7573 9.9038 79.9727 9.76783ZM48.6914 7.62232C48.5255 7.68994 48.3418 7.75695 48.1914 7.85181C48.2 8.65152 47.5753 14.0197 47.8008 14.3069C48.0711 14.2371 48.5409 13.8226 48.7764 13.6292C49.8229 12.7411 50.2339 11.74 50.3623 10.3831C50.4691 9.25441 50.2025 7.49804 48.6914 7.62232ZM69.0615 10.6194C68.8179 11.0892 68.7412 12.1338 68.7373 12.6663C68.7355 12.9871 68.9388 14.5282 69.5312 14.1204L69.8516 13.803C69.9165 12.7711 70.1567 11.9521 69.8193 11.011C69.5412 10.7528 69.4523 10.6699 69.0615 10.6194ZM91.4551 10.6292C91.1079 11.4482 90.928 13.4285 91.5674 14.1262C91.7089 14.1834 91.7965 14.2134 91.9385 14.1155C92.0361 14.0188 92.1842 13.8801 92.2686 13.7795C92.3277 12.7771 92.5404 11.929 92.2314 11.0159C91.9376 10.7527 91.8591 10.6658 91.4551 10.6292ZM55.6641 10.1399C55.3218 10.4111 54.7172 11.597 54.8301 12.0081C54.9534 12.081 55.0447 12.0785 55.1865 12.092C55.8601 11.815 56.4593 10.2753 55.6641 10.1399ZM64.3604 6.28833C64.9829 6.24768 65.3921 6.34898 65.9062 6.6731C65.733 7.19622 65.5536 7.88215 65.1699 8.26587C64.7063 8.48315 64.2289 8.33577 63.9619 7.90064C63.7873 7.61945 63.7337 7.27948 63.8135 6.95826C63.9008 6.61185 64.0751 6.4608 64.3604 6.28833ZM80.1855 6.29224C80.766 6.23613 81.2701 6.35175 81.7451 6.6858C81.5723 7.1982 81.3792 7.91202 80.9961 8.28345C80.5254 8.44536 80.0809 8.34023 79.8008 7.9104C79.6295 7.643 79.572 7.31704 79.6416 7.00708C79.7221 6.64461 79.8956 6.47777 80.1855 6.29224Z" fill="currentColor" />
  </symbol>
</svg>
